<svg width="24" height="24" viewBox="0 0 24 24" fill="none" xmlns="http://www.w3.org/2000/svg">
<path fill-rule="evenodd" clip-rule="evenodd" d="M8 4V5C8 5.26522 8.10536 5.51957 8.29289 5.70711C8.48043 5.89464 8.73478 6 9 6H15C15.2652 6 15.5196 5.89464 15.7071 5.70711C15.8946 5.51957 16 5.26522 16 5V4H18C18.5304 4 19.0391 4.21071 19.4142 4.58579C19.7893 4.96086 20 5.46957 20 6V20C20 20.5304 19.7893 21.0391 19.4142 21.4142C19.0391 21.7893 18.5304 22 18 22H6C5.46957 22 4.96086 21.7893 4.58579 21.4142C4.21071 21.0391 4 20.5304 4 20V6C4 5.46957 4.21071 4.96086 4.58579 4.58579C4.96086 4.21071 5.46957 4 6 4H8ZM12 13H16C17.1046 13 18 12.1046 18 11C18 9.89543 17.1046 9 16 9H12C10.8954 9 10 9.89543 10 11C10 9.89543 9.10457 9 8 9C6.89543 9 6 9.89543 6 11C6 12.1046 6.89543 13 8 13C9.10457 13 10 12.1046 10 11C10 12.1046 10.8954 13 12 13ZM16 18H12C10.8954 18 10 17.1046 10 16C10 14.8954 10.8954 14 12 14H16C17.1046 14 18 14.8954 18 16C18 17.1046 17.1046 18 16 18ZM10 16C10 17.1046 9.10457 18 8 18C6.89543 18 6 17.1046 6 16C6 14.8954 6.89543 14 8 14C9.10457 14 10 14.8954 10 16Z" fill="white"/>
<path d="M8 4H9C9 3.44772 8.55228 3 8 3V4ZM16 4V3C15.4477 3 15 3.44772 15 4H16ZM19.4142 4.58579L18.7071 5.29289V5.29289L19.4142 4.58579ZM4.58579 21.4142L5.29289 20.7071H5.29289L4.58579 21.4142ZM4.58579 4.58579L5.29289 5.29289L5.29289 5.29289L4.58579 4.58579ZM7 4V5H9V4H7ZM7 5C7 5.53043 7.21071 6.03914 7.58579 6.41421L9 5L9 5H7ZM7.58579 6.41421C7.96086 6.78929 8.46957 7 9 7V5L9 5L7.58579 6.41421ZM9 7H15V5H9V7ZM15 7C15.5304 7 16.0391 6.78929 16.4142 6.41421L15 5L15 5V7ZM16.4142 6.41421C16.7893 6.03914 17 5.53043 17 5H15L15 5L16.4142 6.41421ZM17 5V4H15V5H17ZM16 5H18V3H16V5ZM18 5C18.2652 5 18.5196 5.10536 18.7071 5.29289L20.1213 3.87868C19.5587 3.31607 18.7956 3 18 3V5ZM18.7071 5.29289C18.8946 5.48043 19 5.73478 19 6H21C21 5.20435 20.6839 4.44129 20.1213 3.87868L18.7071 5.29289ZM19 6V20H21V6H19ZM19 20C19 20.2652 18.8946 20.5196 18.7071 20.7071L20.1213 22.1213C20.6839 21.5587 21 20.7957 21 20H19ZM18.7071 20.7071C18.5196 20.8946 18.2652 21 18 21V23C18.7956 23 19.5587 22.6839 20.1213 22.1213L18.7071 20.7071ZM18 21H6V23H18V21ZM6 21C5.73478 21 5.48043 20.8946 5.29289 20.7071L3.87868 22.1213C4.44129 22.6839 5.20435 23 6 23V21ZM5.29289 20.7071C5.10536 20.5196 5 20.2652 5 20H3C3 20.7957 3.31607 21.5587 3.87868 22.1213L5.29289 20.7071ZM5 20V6H3V20H5ZM5 6C5 5.73478 5.10536 5.48043 5.29289 5.29289L3.87868 3.87868C3.31607 4.44129 3 5.20435 3 6H5ZM5.29289 5.29289C5.48043 5.10536 5.73478 5 6 5V3C5.20435 3 4.44129 3.31607 3.87868 3.87868L5.29289 5.29289ZM6 5H8V3H6V5ZM16 12H12V14H16V12ZM17 11C17 11.5523 16.5523 12 16 12V14C17.6569 14 19 12.6569 19 11H17ZM16 10C16.5523 10 17 10.4477 17 11H19C19 9.34315 17.6569 8 16 8V10ZM12 10H16V8H12V10ZM11 11C11 10.4477 11.4477 10 12 10V8C10.3431 8 9 9.34315 9 11H11ZM8 10C8.55228 10 9 10.4477 9 11H11C11 9.34315 9.65685 8 8 8V10ZM7 11C7 10.4477 7.44772 10 8 10V8C6.34315 8 5 9.34315 5 11H7ZM8 12C7.44772 12 7 11.5523 7 11H5C5 12.6569 6.34315 14 8 14V12ZM9 11C9 11.5523 8.55228 12 8 12V14C9.65685 14 11 12.6569 11 11H9ZM12 12C11.4477 12 11 11.5523 11 11H9C9 12.6569 10.3431 14 12 14V12ZM12 19H16V17H12V19ZM9 16C9 17.6569 10.3431 19 12 19V17C11.4477 17 11 16.5523 11 16H9ZM12 13C10.3431 13 9 14.3431 9 16H11C11 15.4477 11.4477 15 12 15V13ZM16 13H12V15H16V13ZM19 16C19 14.3431 17.6569 13 16 13V15C16.5523 15 17 15.4477 17 16H19ZM16 19C17.6569 19 19 17.6569 19 16H17C17 16.5523 16.5523 17 16 17V19ZM8 19C9.65685 19 11 17.6569 11 16H9C9 16.5523 8.55228 17 8 17V19ZM5 16C5 17.6569 6.34315 19 8 19V17C7.44772 17 7 16.5523 7 16H5ZM8 13C6.34315 13 5 14.3431 5 16H7C7 15.4477 7.44772 15 8 15V13ZM11 16C11 14.3431 9.65685 13 8 13V15C8.55228 15 9 15.4477 9 16H11Z" fill="white"/>
<path d="M15 2H9C8.73478 2 8.48043 2.10536 8.29289 2.29289C8.10536 2.48043 8 2.73478 8 3V5C8 5.26522 8.10536 5.51957 8.29289 5.70711C8.48043 5.89464 8.73478 6 9 6H15C15.2652 6 15.5196 5.89464 15.7071 5.70711C15.8946 5.51957 16 5.26522 16 5V3C16 2.73478 15.8946 2.48043 15.7071 2.29289C15.5196 2.10536 15.2652 2 15 2V2Z" stroke="white" stroke-width="2" stroke-linecap="round" stroke-linejoin="round"/>
</svg>
