<svg width="32" height="32" viewBox="0 0 32 32" fill="none" xmlns="http://www.w3.org/2000/svg">
<g clip-path="url(#clip0_195_1251)">
<path d="M31.6881 16.3686C31.6881 15.2809 31.5999 14.1874 31.4118 13.1174H16.3201V19.2787H24.9624C24.6038 21.2659 23.4514 23.0237 21.7641 24.1408V28.1386H26.9201C29.9479 25.3519 31.6881 21.2365 31.6881 16.3686Z" fill="#4285F4"/>
<path d="M16.32 32.0011C20.6352 32.0011 24.2744 30.5842 26.9259 28.1385L21.7699 24.1407C20.3354 25.1166 18.4835 25.6693 16.3259 25.6693C12.1517 25.6693 8.61246 22.8532 7.34257 19.067H2.02197V23.1883C4.73812 28.5912 10.2704 32.0011 16.32 32.0011Z" fill="#34A853"/>
<path d="M7.33679 19.0671C6.66657 17.08 6.66657 14.9282 7.33679 12.9411V8.81982H2.02207C-0.247266 13.3409 -0.247266 18.6673 2.02207 23.1884L7.33679 19.0671Z" fill="#FBBC04"/>
<path d="M16.32 6.33288C18.6011 6.29761 20.8057 7.15596 22.4578 8.73156L27.0258 4.16349C24.1333 1.44734 20.2943 -0.0459547 16.32 0.00107822C10.2704 0.00107822 4.73812 3.41096 2.02197 8.81974L7.33669 12.941C8.6007 9.14897 12.1458 6.33288 16.32 6.33288Z" fill="#EA4335"/>
</g>
<defs>
<clipPath id="clip0_195_1251">
<rect width="32" height="32" fill="white"/>
</clipPath>
</defs>
</svg>
