<svg width="24" height="24" viewBox="0 0 24 24" fill="none" xmlns="http://www.w3.org/2000/svg">
<path fill-rule="evenodd" clip-rule="evenodd" d="M12 2L3 9V20C3 20.5304 3.21071 21.0391 3.58579 21.4142C3.96086 21.7893 4.46957 22 5 22H9V12H15V22H19C19.5304 22 20.0391 21.7893 20.4142 21.4142C20.7893 21.0391 21 20.5304 21 20V9L12 2Z" fill="white"/>
<path d="M3 9L2.38606 8.21065C2.14247 8.4001 2 8.69141 2 9H3ZM12 2L12.6139 1.21065C12.2528 0.929784 11.7472 0.929784 11.3861 1.21065L12 2ZM3.58579 21.4142L4.29289 20.7071H4.29289L3.58579 21.4142ZM9 22V23C9.55228 23 10 22.5523 10 22H9ZM9 12V11C8.44772 11 8 11.4477 8 12H9ZM15 12H16C16 11.4477 15.5523 11 15 11V12ZM15 22H14C14 22.5523 14.4477 23 15 23V22ZM21 9H22C22 8.69141 21.8575 8.4001 21.6139 8.21065L21 9ZM3.61394 9.78935L12.6139 2.78935L11.3861 1.21065L2.38606 8.21065L3.61394 9.78935ZM4 20V9H2V20H4ZM4.29289 20.7071C4.10536 20.5196 4 20.2652 4 20H2C2 20.7957 2.31607 21.5587 2.87868 22.1213L4.29289 20.7071ZM5 21C4.73478 21 4.48043 20.8946 4.29289 20.7071L2.87868 22.1213C3.44129 22.6839 4.20435 23 5 23V21ZM9 21H5V23H9V21ZM10 22V12H8V22H10ZM9 13H15V11H9V13ZM14 12V22H16V12H14ZM19 21H15V23H19V21ZM19.7071 20.7071C19.5196 20.8946 19.2652 21 19 21V23C19.7957 23 20.5587 22.6839 21.1213 22.1213L19.7071 20.7071ZM20 20C20 20.2652 19.8946 20.5196 19.7071 20.7071L21.1213 22.1213C21.6839 21.5587 22 20.7957 22 20H20ZM20 9V20H22V9H20ZM11.3861 2.78935L20.3861 9.78935L21.6139 8.21065L12.6139 1.21065L11.3861 2.78935Z" fill="white"/>
<path d="M3 9L12 2L21 9V20C21 20.5304 20.7893 21.0391 20.4142 21.4142C20.0391 21.7893 19.5304 22 19 22H5C4.46957 22 3.96086 21.7893 3.58579 21.4142C3.21071 21.0391 3 20.5304 3 20V9Z" stroke="white" stroke-width="2" stroke-linecap="round" stroke-linejoin="round"/>
<path d="M9 22C9 18.0948 9 12 9 12H15C15 12 15 18.0948 15 22" stroke="white" stroke-width="2" stroke-linecap="round" stroke-linejoin="round"/>
</svg>
